<svg id="Calque_1" data-name="Calque 1" xmlns="http://www.w3.org/2000/svg" viewBox="0 0 24.59 15.56"><defs><style>.cls-1{fill:#fff;}</style></defs><path class="cls-1" d="M24.59,4.84V10.9a4.52,4.52,0,0,1-4.5,4.5H4.49A4.51,4.51,0,0,1,0,10.9V4.84a3.58,3.58,0,0,1,.13-.92L6.28,7.75l.09.06L11.79,12a1.13,1.13,0,0,0,1.4,0l5.22-4.4.09-.07,5.79-4A3.28,3.28,0,0,1,24.59,4.84Z"/><path class="cls-1" d="M13,4.79a.91.91,0,0,1,.11.47.9.9,0,0,1-.11.46.76.76,0,0,1-.29.3.89.89,0,0,1-.43.11.8.8,0,0,1-.6-.24.89.89,0,0,1-.23-.63.9.9,0,0,1,.23-.64.79.79,0,0,1,.6-.23.88.88,0,0,1,.43.1A.76.76,0,0,1,13,4.79Z"/><path class="cls-1" d="M22.41.16H2.79A4,4,0,0,0,1.35.43a1.8,1.8,0,0,0-.17,3.29l4.75,2.7.17.11,5.37,3.76a2.21,2.21,0,0,0,2.59-.06l5.17-4,.17-.11,4.05-2.54A1.86,1.86,0,0,0,22.41.16ZM16.29,6.53a1.38,1.38,0,0,1-1.19.61,1.18,1.18,0,0,1-.72-.21A.93.93,0,0,1,14,6.35a1.75,1.75,0,0,1-.71.58,2.34,2.34,0,0,1-1,.21,2.4,2.4,0,0,1-1.14-.28,2.06,2.06,0,0,1-.8-.75A2.14,2.14,0,0,1,10.08,5a2.07,2.07,0,0,1,.28-1.08,2,2,0,0,1,.8-.75,2.4,2.4,0,0,1,1.14-.27,2.59,2.59,0,0,1,.95.17,1.86,1.86,0,0,1,.7.53V2.94h.79v3a.6.6,0,0,0,.15.45.47.47,0,0,0,.37.15.68.68,0,0,0,.61-.42,2.68,2.68,0,0,0,.23-1.21,2.89,2.89,0,0,0-.45-1.61,3,3,0,0,0-1.27-1.08,4.22,4.22,0,0,0-1.88-.4,4.24,4.24,0,0,0-1.89.41A3,3,0,0,0,9.34,3.33,3.09,3.09,0,0,0,8.88,5a3.09,3.09,0,0,0,.46,1.66,2.94,2.94,0,0,0,1.25,1.14,4,4,0,0,0,1.87.41,4.66,4.66,0,0,0,.9-.09,4,4,0,0,0,.85-.27l.19.53a4.07,4.07,0,0,1-.91.28,5.21,5.21,0,0,1-1,.1,4.85,4.85,0,0,1-2.2-.48,3.76,3.76,0,0,1-1.5-1.34A3.69,3.69,0,0,1,8.23,5a3.56,3.56,0,0,1,.54-1.94,3.51,3.51,0,0,1,1.5-1.32,5,5,0,0,1,2.23-.48,4.84,4.84,0,0,1,2.17.46A3.52,3.52,0,0,1,16.18,3a3.36,3.36,0,0,1,.53,1.88A2.85,2.85,0,0,1,16.29,6.53Z"/></svg>